<?xml version="1.0" encoding="UTF-8"?>
<svg id="Layer_2" xmlns="http://www.w3.org/2000/svg" xmlns:xlink="http://www.w3.org/1999/xlink" viewBox="0 0 435.4 175.32">
  <defs>
    <style>
      .cls-1, .cls-2, .cls-3, .cls-4 {
        stroke: #000;
        stroke-miterlimit: 10;
      }

      .cls-1, .cls-3 {
        fill: none;
      }

      .cls-5 {
        mask: url(#mask);
      }

      .cls-2, .cls-4 {
        fill: #fff;
      }

      .cls-3, .cls-4 {
        stroke-width: .6px;
      }

      .cls-6 {
        fill: url(#linear-gradient);
      }
    </style>
    <mask id="mask" x="0" y="0" width="435.4" height="175.32" maskUnits="userSpaceOnUse">
      <g>
        <path class="cls-2" d="M109.3,72.11c-1.66-.96-3.55-1.54-5.34-2.26-1.19-.48-2.39-.95-3.9-1.55,1.24-2.71,2.35-5.09,3.43-7.48,1.48-3.27,1.23-4.83-1.28-7.46-1.13-1.18-2.33-2.3-3.51-3.43-3.69-3.55-4.59-3.73-9.23-1.72-2.13.92-4.21,1.94-6.31,2.91-.39-.45-.67-.64-.77-.91-.73-2.02-1.43-4.04-2.12-6.07-1.36-3.99-3.01-5.21-7.2-5.24-1.64-.01-3.27-.01-4.91,0-4.55.02-6.11,1.19-7.57,5.59-.73,2.18-1.53,4.34-2.43,6.9-2.83-1.29-5.28-2.28-7.61-3.48-2.72-1.41-5.11-1.11-7.29,1-1.61,1.57-3.18,3.18-4.77,4.77-1.52,1.52-2,3.34-1.34,5.35.61,1.84,1.41,3.61,2.13,5.41.48,1.19.96,2.38,1.59,3.94-2.23.81-4.1,1.56-6.01,2.18-4.55,1.48-5.79,2.96-6.12,7.64-.09,1.32-.1,2.66,0,3.98.38,5.46,1.28,6.53,6.51,8.28,1.87.62,3.67,1.47,5.71,2.3-.62,1.53-.98,2.58-1.45,3.58-4.19,8.97-3.71,8.66,2.59,15.03,3.74,3.78,4.66,4,9.69,1.83,2.2-.95,4.4-1.91,6.72-2.91.51,1.21.87,1.94,1.12,2.71,3.05,9.53,2.93,9.46,13.45,9.4,4.37-.02,5.74-1.12,7.15-5.27.77-2.28,1.55-4.55,2.43-7.12,2.79,1.32,5.07,2.42,7.37,3.5,3.74,1.75,5.24,1.5,8.24-1.37,1.11-1.06,2.08-2.27,3.24-3.26,2.96-2.52,3.27-5.4,1.62-8.79-1.1-2.26-1.93-4.65-3.08-7.47,2.66-.93,4.68-1.6,6.67-2.35,2.03-.77,4.46-1.61,4.73-3.93.44-3.81.37-7.7.16-11.54-.05-.94-1.32-2.08-2.31-2.65ZM93.92,51.2c1.96,2.1,3.81,4.08,6.01,6.43-1.27,2.79-2.6,5.7-4.25,9.31-3.92-3.86-7.41-7.29-11.48-11.3,3.58-1.63,6.5-2.96,9.73-4.43ZM42.65,55.7c1.41-1.46,3.01-2.73,4.89-4.39,3.02,1.49,5.82,2.87,8.68,4.27-3.71,3.62-7.17,7-10.84,10.59-1.8-2.17-3.03-5.03-3.75-8.08-.16-.69.45-1.8,1.03-2.4ZM47.54,110.24c-2.14-1.96-4.15-3.79-6.52-5.96,1.52-3.43,2.96-6.7,4.21-9.53,3.98,3.86,7.65,7.44,11.51,11.19-2.92,1.37-5.93,2.78-9.2,4.3ZM100.22,104.12c-2.14,2.16-4.06,4.09-6.18,6.22-3.35-1.54-6.34-2.93-10.09-4.65,4.04-4.1,7.61-7.72,11.68-11.84,1.68,3.76,3.06,6.86,4.59,10.27ZM107.19,85.35c-17.29,4-27.95,14.61-31.63,31.91h-9.49c-1.58-4.28-3.17-8.58-4.77-12.87-.25-.67-.39-1.47-.86-1.95-4.01-4.07-7.87-8.32-12.23-11.98-1.91-1.6-4.88-1.94-7.36-2.86-2.38-.88-4.75-1.77-7.25-2.7v-8.93c2.09-.83,4.18-1.88,6.4-2.49,5.11-1.4,9.29-3.81,13.16-7.73,4.99-5.05,9.56-9.95,10.95-17.16.3-1.56,1.24-2.99,1.94-4.63h9.12c1.37,3.94,2.57,7.84,4.11,11.6.7,1.71,1.94,3.27,3.2,4.66,2.11,2.35,4.49,4.46,6.63,6.79,1.97,2.15,4.04,3.89,6.97,4.72,3.71,1.05,7.28,2.58,11.1,3.97v9.63Z"/>
        <path class="cls-2" d="M175.97,105.68c-6.63-9.62-11.58-19.45-19.11-27.73,1.58-1,2.9-1.76,4.14-2.64,5.3-3.78,7.05-9.12,6.36-15.34-.66-6-3.8-10.44-9.55-12.41-3.33-1.14-6.94-1.76-10.47-1.97-5.3-.31-10.63-.07-15.95-.03-1.01,0-2.01.16-3.47.29v59.84h9.64v-25.26c6.26-.94,11.16.12,14.48,5.28,3.65,5.68,7.22,11.41,10.85,17.1.65,1.02,1.4,1.97,2.05,2.86h11.02ZM150.74,71.22c-4.04.75-8.23.7-12.86,1.04v-19.53c4.64.37,8.93.32,13.05,1.13,4.42.87,6.57,4.1,6.56,8.38,0,4.51-2.42,8.17-6.75,8.98Z"/>
        <path class="cls-2" d="M223.2,97.81h-29.07v-18.27c8.83-.54,17.37.21,25.89-.46v-8.09h-25.87v-17.46h27.51v-7.68h-37.5v59.96h39.04v-8Z"/>
        <path class="cls-2" d="M268.13,48.73c-3.99-2.17-8.15-3.24-12.61-3.28-5.62-.06-11.25-.02-16.87.01-1.41,0-2.82.13-4.63.21v60.28h9.81v-25.26c3.87,0,7.22.08,10.56-.02,5.62-.16,10.86-1.37,15.49-4.91,7.64-5.84,7.79-21.87-1.75-27.04ZM265.36,64.12c-.32,3.43-2.03,5.99-5.37,7.13-5.14,1.75-10.36,1.14-15.84.94v-18.78c5.95.01,11.75-1.07,17.16,1.81,3.49,1.85,4.4,5.2,4.05,8.9Z"/>
        <path class="cls-2" d="M377.97,81.7c6.16,8.28,12.05,16.19,17.82,23.94h10.93c-7.91-10.72-15.38-20.85-22.91-31.05,2.03-2.69,3.77-4.95,5.47-7.24,1.76-2.38,3.47-4.81,5.23-7.19,1.7-2.3,3.47-4.55,5.17-6.85,1.7-2.3,3.36-4.62,5.04-6.93l-.56-.58h-9.58c-5.37,7.26-10.74,14.51-16.37,22.12-5.81-7.84-11.25-15.19-16.42-22.16h-9.94c-.15.22-.3.43-.44.65,6.98,9.47,13.95,18.93,21,28.5-7.67,10.28-15.13,20.3-22.6,30.32l.48.59h9.99c5.82-7.94,11.59-15.82,17.68-24.12Z"/>
        <path class="cls-2" d="M285.11,105.82h9.87v-27.35c8.56-.57,16.69.26,24.83-.43v-8.3h-24.44v-16.23h25.65v-7.82h-35.91v60.13Z"/>
        <path class="cls-2" d="M332.12,45.81v60.05h9.17c.95-4.79.6-57.84-.34-60.05h-8.84Z"/>
        <path class="cls-2" d="M70.68,65.17c-8.6-.06-15.68,6.86-15.75,15.42-.08,8.6,7.04,15.88,15.62,16.08,7.38.17,15.83-6.59,15.79-15.88-.04-8.31-7.17-15.56-15.66-15.62ZM62.26,73.14c3.5-4.14,9.86-4.96,14.36-1.54-4.98,5.12-9.93,10.2-14.88,15.28-3.5-3.38-3.16-9.38.52-13.73ZM78.73,88.66c-4.17,4.18-9.57,4.8-13.76,1.18,4.86-5.01,9.7-10,14.57-15.03,3.43,4,2.94,10.09-.82,13.85Z"/>
        <path class="cls-4" d="M132.18,122.07c-2.14-3.81,4.85-3.56,6.81-1.92l.87-2.12c-3.91-2.84-13.11-1.06-10.4,5.02,1.68,2.6,5.55,1.94,7.82,3.54,2.2,4.19-5.93,3.3-7.66,1.38l-.95,2.12c1.45,1.18,3.83,1.78,5.83,1.76,3.69.36,7.37-2.74,5.5-6.27-1.68-2.58-5.55-1.93-7.81-3.51Z"/>
        <polygon class="cls-4" points="149.17 125.3 156.3 125.3 156.3 123.05 149.17 123.05 149.17 119.25 157.21 119.25 157.21 116.94 146.42 116.94 146.42 131.64 157.51 131.64 157.51 129.33 149.17 129.33 149.17 125.3"/>
        <path class="cls-4" d="M173.25,126.73c3.34-1.24,3.91-6.27,1.25-8.39-2.05-2.06-7.89-1.24-10.69-1.4v14.7h2.74v-4.29c1.17.01,2.6.06,3.9-.03l3.02,4.32h2.96l-3.4-4.83c.07-.03.16-.05.22-.09ZM166.54,125.09v-5.83c2.78-.07,6.96-.52,6.86,2.9.09,3.44-4.07,2.99-6.86,2.93Z"/>
        <polygon class="cls-4" points="188.25 128.25 183.35 116.94 180.37 116.94 186.83 131.64 189.53 131.64 195.97 116.94 193.25 116.94 188.25 128.25"/>
        <rect class="cls-4" x="200.76" y="116.94" width="2.74" height="14.7"/>
        <path class="cls-4" d="M221.66,120.85l1.77-1.66c-10.87-9.81-20.86,10.53-6.78,12.55l-.5,1.9c3.27-.24,1.37,2.45-.78,1.11l-.46,1.24c.57.31,1.23.42,1.92.42,2.8.46,4.18-3.35,1.03-3.74l.19-.84c2.11-.1,4.03-.86,5.38-2.46l-1.77-1.66c-3,3.52-9.47,1.35-9.25-3.42-.22-4.77,6.22-6.92,9.25-3.44Z"/>
        <path class="cls-4" d="M235.32,116.73c-10.38-.48-10.36,15.59,0,15.12,10.32.5,10.33-15.62,0-15.12ZM235.32,129.46c-6.82.28-6.82-10.61,0-10.33,6.77-.28,6.76,10.6,0,10.33Z"/>
        <path class="cls-4" d="M251.67,122.07c-2.14-3.81,4.85-3.56,6.81-1.92l.87-2.12c-3.91-2.84-13.11-1.06-10.4,5.02,1.68,2.6,5.55,1.94,7.82,3.54,2.2,4.19-5.93,3.29-7.66,1.38l-.95,2.12c1.45,1.18,3.83,1.78,5.83,1.76,3.69.36,7.37-2.74,5.5-6.27-1.69-2.58-5.55-1.93-7.81-3.51Z"/>
        <polygon class="cls-4" points="273.07 119.25 277.97 119.25 277.97 131.64 280.71 131.64 280.71 119.25 285.61 119.25 285.61 116.94 273.07 116.94 273.07 119.25"/>
        <polygon class="cls-4" points="297.39 112.87 294.54 115.74 296.82 115.74 300.51 112.87 297.39 112.87"/>
        <polygon class="cls-4" points="293.65 125.3 300.79 125.3 300.79 123.05 293.65 123.05 293.65 119.25 301.7 119.25 301.7 116.94 290.91 116.94 290.91 131.64 301.99 131.64 301.99 129.33 293.65 129.33 293.65 125.3"/>
        <path class="cls-4" d="M319.22,120.85l1.77-1.66c-11.1-10.02-21.3,11.42-5.87,12.66,2.3,0,4.41-.76,5.87-2.48l-1.77-1.66c-3,3.52-9.47,1.35-9.25-3.42-.22-4.78,6.22-6.92,9.25-3.44Z"/>
        <polygon class="cls-4" points="337.08 126.91 328.93 116.94 326.67 116.94 326.67 131.64 329.39 131.64 329.39 121.67 337.52 131.64 339.78 131.64 339.78 116.94 337.08 116.94 337.08 126.91"/>
        <rect class="cls-4" x="347" y="116.94" width="2.74" height="14.7"/>
        <path class="cls-4" d="M367.9,120.85l1.77-1.66c-11.1-10.02-21.3,11.42-5.87,12.66,2.3,0,4.41-.76,5.87-2.48l-1.77-1.66c-3,3.52-9.47,1.35-9.25-3.42-.22-4.78,6.22-6.92,9.25-3.44Z"/>
        <path class="cls-4" d="M381.56,116.73c-10.38-.48-10.36,15.59,0,15.12,10.32.5,10.33-15.62,0-15.12ZM381.56,129.46c-6.82.28-6.82-10.61,0-10.33,6.77-.28,6.76,10.6,0,10.33Z"/>
        <path class="cls-4" d="M397.91,122.07c-2.14-3.81,4.85-3.56,6.81-1.92l.87-2.12c-3.91-2.84-13.11-1.06-10.4,5.02,1.68,2.6,5.55,1.94,7.82,3.54,2.2,4.19-5.93,3.29-7.66,1.38l-.95,2.12c1.45,1.18,3.83,1.78,5.83,1.76,3.69.36,7.37-2.74,5.5-6.27-1.69-2.58-5.55-1.93-7.81-3.51Z"/>
      </g>
    </mask>
    <linearGradient id="linear-gradient" x1=".69" y1="8.66" x2="440.75" y2="168.85" gradientUnits="userSpaceOnUse">
      <stop offset="0" stop-color="#fff"/>
      <stop offset=".07" stop-color="#f6ebd7"/>
      <stop offset=".22" stop-color="#e4bf80"/>
      <stop offset=".34" stop-color="#d8a449"/>
      <stop offset=".39" stop-color="#d49a34"/>
      <stop offset=".43" stop-color="#d69f3e"/>
      <stop offset=".5" stop-color="#ddaf5c"/>
      <stop offset=".59" stop-color="#e8c88b"/>
      <stop offset=".63" stop-color="#eed7a5"/>
      <stop offset=".65" stop-color="#e9cb86"/>
      <stop offset=".68" stop-color="#e3be62"/>
      <stop offset=".72" stop-color="#deb343"/>
      <stop offset=".75" stop-color="#daa92b"/>
      <stop offset=".79" stop-color="#d7a217"/>
      <stop offset=".84" stop-color="#d59d0a"/>
      <stop offset=".89" stop-color="#d49a02"/>
      <stop offset="1" stop-color="#d49a00"/>
    </linearGradient>
  </defs>
  <g id="Layer_1-2" data-name="Layer_1">
    <g>
      <g class="cls-5">
        <rect class="cls-6" width="435.4" height="175.32"/>
      </g>
      <g>
        <path class="cls-1" d="M109.3,72.11c-1.66-.96-3.55-1.54-5.34-2.26-1.19-.48-2.39-.95-3.9-1.55,1.24-2.71,2.35-5.09,3.43-7.48,1.48-3.27,1.23-4.83-1.28-7.46-1.13-1.18-2.33-2.3-3.51-3.43-3.69-3.55-4.59-3.73-9.23-1.72-2.13.92-4.21,1.94-6.31,2.91-.39-.45-.67-.64-.77-.91-.73-2.02-1.43-4.04-2.12-6.07-1.36-3.99-3.01-5.21-7.2-5.24-1.64-.01-3.27-.01-4.91,0-4.55.02-6.11,1.19-7.57,5.59-.73,2.18-1.53,4.34-2.43,6.9-2.83-1.29-5.28-2.28-7.61-3.48-2.72-1.41-5.11-1.11-7.29,1-1.61,1.57-3.18,3.18-4.77,4.77-1.52,1.52-2,3.34-1.34,5.35.61,1.84,1.41,3.61,2.13,5.41.48,1.19.96,2.38,1.59,3.94-2.23.81-4.1,1.56-6.01,2.18-4.55,1.48-5.79,2.96-6.12,7.64-.09,1.32-.1,2.66,0,3.98.38,5.46,1.28,6.53,6.51,8.28,1.87.62,3.67,1.47,5.71,2.3-.62,1.53-.98,2.58-1.45,3.58-4.19,8.97-3.71,8.66,2.59,15.03,3.74,3.78,4.66,4,9.69,1.83,2.2-.95,4.4-1.91,6.72-2.91.51,1.21.87,1.94,1.12,2.71,3.05,9.53,2.93,9.46,13.45,9.4,4.37-.02,5.74-1.12,7.15-5.27.77-2.28,1.55-4.55,2.43-7.12,2.79,1.32,5.07,2.42,7.37,3.5,3.74,1.75,5.24,1.5,8.24-1.37,1.11-1.06,2.08-2.27,3.24-3.26,2.96-2.52,3.27-5.4,1.62-8.79-1.1-2.26-1.93-4.65-3.08-7.47,2.66-.93,4.68-1.6,6.67-2.35,2.03-.77,4.46-1.61,4.73-3.93.44-3.81.37-7.7.16-11.54-.05-.94-1.32-2.08-2.31-2.65ZM93.92,51.2c1.96,2.1,3.81,4.08,6.01,6.43-1.27,2.79-2.6,5.7-4.25,9.31-3.92-3.86-7.41-7.29-11.48-11.3,3.58-1.63,6.5-2.96,9.73-4.43ZM42.65,55.7c1.41-1.46,3.01-2.73,4.89-4.39,3.02,1.49,5.82,2.87,8.68,4.27-3.71,3.62-7.17,7-10.84,10.59-1.8-2.17-3.03-5.03-3.75-8.08-.16-.69.45-1.8,1.03-2.4ZM47.54,110.24c-2.14-1.96-4.15-3.79-6.52-5.96,1.52-3.43,2.96-6.7,4.21-9.53,3.98,3.86,7.65,7.44,11.51,11.19-2.92,1.37-5.93,2.78-9.2,4.3ZM100.22,104.12c-2.14,2.16-4.06,4.09-6.18,6.22-3.35-1.54-6.34-2.93-10.09-4.65,4.04-4.1,7.61-7.72,11.68-11.84,1.68,3.76,3.06,6.86,4.59,10.27ZM107.19,85.35c-17.29,4-27.95,14.61-31.63,31.91h-9.49c-1.58-4.28-3.17-8.58-4.77-12.87-.25-.67-.39-1.47-.86-1.95-4.01-4.07-7.87-8.32-12.23-11.98-1.91-1.6-4.88-1.94-7.36-2.86-2.38-.88-4.75-1.77-7.25-2.7v-8.93c2.09-.83,4.18-1.88,6.4-2.49,5.11-1.4,9.29-3.81,13.16-7.73,4.99-5.05,9.56-9.95,10.95-17.16.3-1.56,1.24-2.99,1.94-4.63h9.12c1.37,3.94,2.57,7.84,4.11,11.6.7,1.71,1.94,3.27,3.2,4.66,2.11,2.35,4.49,4.46,6.63,6.79,1.97,2.15,4.04,3.89,6.97,4.72,3.71,1.05,7.28,2.58,11.1,3.97v9.63Z"/>
        <path class="cls-1" d="M175.97,105.68c-6.63-9.62-11.58-19.45-19.11-27.73,1.58-1,2.9-1.76,4.14-2.64,5.3-3.78,7.05-9.12,6.36-15.34-.66-6-3.8-10.44-9.55-12.41-3.33-1.14-6.94-1.76-10.47-1.97-5.3-.31-10.63-.07-15.95-.03-1.01,0-2.01.16-3.47.29v59.84h9.64v-25.26c6.26-.94,11.16.12,14.48,5.28,3.65,5.68,7.22,11.41,10.85,17.1.65,1.02,1.4,1.97,2.05,2.86h11.02ZM150.74,71.22c-4.04.75-8.23.7-12.86,1.04v-19.53c4.64.37,8.93.32,13.05,1.13,4.42.87,6.57,4.1,6.56,8.38,0,4.51-2.42,8.17-6.75,8.98Z"/>
        <path class="cls-1" d="M223.2,97.81h-29.07v-18.27c8.83-.54,17.37.21,25.89-.46v-8.09h-25.87v-17.46h27.51v-7.68h-37.5v59.96h39.04v-8Z"/>
        <path class="cls-1" d="M268.13,48.73c-3.99-2.17-8.15-3.24-12.61-3.28-5.62-.06-11.25-.02-16.87.01-1.41,0-2.82.13-4.63.21v60.28h9.81v-25.26c3.87,0,7.22.08,10.56-.02,5.62-.16,10.86-1.37,15.49-4.91,7.64-5.84,7.79-21.87-1.75-27.04ZM265.36,64.12c-.32,3.43-2.03,5.99-5.37,7.13-5.14,1.75-10.36,1.14-15.84.94v-18.78c5.95.01,11.75-1.07,17.16,1.81,3.49,1.85,4.4,5.2,4.05,8.9Z"/>
        <path class="cls-1" d="M377.97,81.7c6.16,8.28,12.05,16.19,17.82,23.94h10.93c-7.91-10.72-15.38-20.85-22.91-31.05,2.03-2.69,3.77-4.95,5.47-7.24,1.76-2.38,3.47-4.81,5.23-7.19,1.7-2.3,3.47-4.55,5.17-6.85,1.7-2.3,3.36-4.62,5.04-6.93l-.56-.58h-9.58c-5.37,7.26-10.74,14.51-16.37,22.12-5.81-7.84-11.25-15.19-16.42-22.16h-9.94c-.15.22-.3.43-.44.65,6.98,9.47,13.95,18.93,21,28.5-7.67,10.28-15.13,20.3-22.6,30.32l.48.59h9.99c5.82-7.94,11.59-15.82,17.68-24.12Z"/>
        <path class="cls-1" d="M285.11,105.82h9.87v-27.35c8.56-.57,16.69.26,24.83-.43v-8.3h-24.44v-16.23h25.65v-7.82h-35.91v60.13Z"/>
        <path class="cls-1" d="M332.12,45.81v60.05h9.17c.95-4.79.6-57.84-.34-60.05h-8.84Z"/>
        <path class="cls-1" d="M70.68,65.17c-8.6-.06-15.68,6.86-15.75,15.42-.08,8.6,7.04,15.88,15.62,16.08,7.38.17,15.83-6.59,15.79-15.88-.04-8.31-7.17-15.56-15.66-15.62ZM62.26,73.14c3.5-4.14,9.86-4.96,14.36-1.54-4.98,5.12-9.93,10.2-14.88,15.28-3.5-3.38-3.16-9.38.52-13.73ZM78.73,88.66c-4.17,4.18-9.57,4.8-13.76,1.18,4.86-5.01,9.7-10,14.57-15.03,3.43,4,2.94,10.09-.82,13.85Z"/>
        <path class="cls-3" d="M132.18,122.07c-2.14-3.81,4.85-3.56,6.81-1.92l.87-2.12c-3.91-2.84-13.11-1.06-10.4,5.02,1.68,2.6,5.55,1.94,7.82,3.54,2.2,4.19-5.93,3.3-7.66,1.38l-.95,2.12c1.45,1.18,3.83,1.78,5.83,1.76,3.69.36,7.37-2.74,5.5-6.27-1.68-2.58-5.55-1.93-7.81-3.51Z"/>
        <polygon class="cls-3" points="149.17 125.3 156.3 125.3 156.3 123.05 149.17 123.05 149.17 119.25 157.21 119.25 157.21 116.94 146.42 116.94 146.42 131.64 157.51 131.64 157.51 129.33 149.17 129.33 149.17 125.3"/>
        <path class="cls-3" d="M173.25,126.73c3.34-1.24,3.91-6.27,1.25-8.39-2.05-2.06-7.89-1.24-10.69-1.4v14.7h2.74v-4.29c1.17.01,2.6.06,3.9-.03l3.02,4.32h2.96l-3.4-4.83c.07-.03.16-.05.22-.09ZM166.54,125.09v-5.83c2.78-.07,6.96-.52,6.86,2.9.09,3.44-4.07,2.99-6.86,2.93Z"/>
        <polygon class="cls-3" points="188.25 128.25 183.35 116.94 180.37 116.94 186.83 131.64 189.53 131.64 195.97 116.94 193.25 116.94 188.25 128.25"/>
        <rect class="cls-3" x="200.76" y="116.94" width="2.74" height="14.7"/>
        <path class="cls-3" d="M221.66,120.85l1.77-1.66c-10.87-9.81-20.86,10.53-6.78,12.55l-.5,1.9c3.27-.24,1.37,2.45-.78,1.11l-.46,1.24c.57.31,1.23.42,1.92.42,2.8.46,4.18-3.35,1.03-3.74l.19-.84c2.11-.1,4.03-.86,5.38-2.46l-1.77-1.66c-3,3.52-9.47,1.35-9.25-3.42-.22-4.77,6.22-6.92,9.25-3.44Z"/>
        <path class="cls-3" d="M235.32,116.73c-10.38-.48-10.36,15.59,0,15.12,10.32.5,10.33-15.62,0-15.12ZM235.32,129.46c-6.82.28-6.82-10.61,0-10.33,6.77-.28,6.76,10.6,0,10.33Z"/>
        <path class="cls-3" d="M251.67,122.07c-2.14-3.81,4.85-3.56,6.81-1.92l.87-2.12c-3.91-2.84-13.11-1.06-10.4,5.02,1.68,2.6,5.55,1.94,7.82,3.54,2.2,4.19-5.93,3.29-7.66,1.38l-.95,2.12c1.45,1.18,3.83,1.78,5.83,1.76,3.69.36,7.37-2.74,5.5-6.27-1.69-2.58-5.55-1.93-7.81-3.51Z"/>
        <polygon class="cls-3" points="273.07 119.25 277.97 119.25 277.97 131.64 280.71 131.64 280.71 119.25 285.61 119.25 285.61 116.94 273.07 116.94 273.07 119.25"/>
        <polygon class="cls-3" points="297.39 112.87 294.54 115.74 296.82 115.74 300.51 112.87 297.39 112.87"/>
        <polygon class="cls-3" points="293.65 125.3 300.79 125.3 300.79 123.05 293.65 123.05 293.65 119.25 301.7 119.25 301.7 116.94 290.91 116.94 290.91 131.64 301.99 131.64 301.99 129.33 293.65 129.33 293.65 125.3"/>
        <path class="cls-3" d="M319.22,120.85l1.77-1.66c-11.1-10.02-21.3,11.42-5.87,12.66,2.3,0,4.41-.76,5.87-2.48l-1.77-1.66c-3,3.52-9.47,1.35-9.25-3.42-.22-4.78,6.22-6.92,9.25-3.44Z"/>
        <polygon class="cls-3" points="337.08 126.91 328.93 116.94 326.67 116.94 326.67 131.64 329.39 131.64 329.39 121.67 337.52 131.64 339.78 131.64 339.78 116.94 337.08 116.94 337.08 126.91"/>
        <rect class="cls-3" x="347" y="116.94" width="2.74" height="14.7"/>
        <path class="cls-3" d="M367.9,120.85l1.77-1.66c-11.1-10.02-21.3,11.42-5.87,12.66,2.3,0,4.41-.76,5.87-2.48l-1.77-1.66c-3,3.52-9.47,1.35-9.25-3.42-.22-4.78,6.22-6.92,9.25-3.44Z"/>
        <path class="cls-3" d="M381.56,116.73c-10.38-.48-10.36,15.59,0,15.12,10.32.5,10.33-15.62,0-15.12ZM381.56,129.46c-6.82.28-6.82-10.61,0-10.33,6.77-.28,6.76,10.6,0,10.33Z"/>
        <path class="cls-3" d="M397.91,122.07c-2.14-3.81,4.85-3.56,6.81-1.92l.87-2.12c-3.91-2.84-13.11-1.06-10.4,5.02,1.68,2.6,5.55,1.94,7.82,3.54,2.2,4.19-5.93,3.29-7.66,1.38l-.95,2.12c1.45,1.18,3.83,1.78,5.83,1.76,3.69.36,7.37-2.74,5.5-6.27-1.69-2.58-5.55-1.93-7.81-3.51Z"/>
      </g>
    </g>
  </g>
</svg>